<svg width="9" height="16" viewBox="0 0 9 16" fill="none" xmlns="http://www.w3.org/2000/svg">
<path d="M6.4401 7.90659L0.315104 14.0316C0.106771 14.2399 0.00607681 14.483 0.0130215 14.7608C0.0199652 15.0385 0.127604 15.2816 0.335938 15.4899C0.544271 15.6983 0.787326 15.8024 1.0651 15.8024C1.34288 15.8024 1.58594 15.6983 1.79427 15.4899L8.21094 9.09409C8.3776 8.92742 8.5026 8.73992 8.58594 8.53159C8.66927 8.32325 8.71094 8.11492 8.71094 7.90659C8.71094 7.69825 8.66927 7.48992 8.58594 7.28159C8.5026 7.07325 8.3776 6.88575 8.21094 6.71909L1.79427 0.302419C1.58594 0.094086 1.33941 -0.00660842 1.05469 0.000336022C0.769966 0.00728047 0.523438 0.114919 0.315104 0.323253C0.106771 0.531586 0.00260448 0.774642 0.00260448 1.05242C0.00260448 1.3302 0.106771 1.57325 0.315104 1.78159L6.4401 7.90659Z" fill="#252525"/>
</svg>
