<svg width="20" height="20" viewBox="0 0 20 20" fill="none" xmlns="http://www.w3.org/2000/svg">
<mask id="mask0_924_5113" style="mask-type:alpha" maskUnits="userSpaceOnUse" x="0" y="0" width="20" height="20">
<rect width="20" height="20" fill="#D9D9D9"/>
</mask>
<g mask="url(#mask0_924_5113)">
<path d="M1.46032 11.166C1.27976 11.041 1.17212 10.8709 1.1374 10.6556C1.10268 10.4403 1.14087 10.2355 1.25198 10.041L3.79365 5.95771C4.09921 5.47159 4.53323 5.21118 5.09573 5.17646C5.65823 5.14173 6.12004 5.33965 6.48115 5.77021L7.50198 6.95771L9.48115 3.74937C9.8006 3.22159 10.2624 2.95423 10.8666 2.94729C11.4707 2.94034 11.9395 3.19382 12.2728 3.7077L13.3353 5.29104L15.6687 1.5827C15.7937 1.37437 15.9777 1.2459 16.2207 1.19729C16.4638 1.14868 16.6825 1.20076 16.877 1.35354C17.0575 1.47854 17.1652 1.64868 17.1999 1.86395C17.2346 2.07923 17.1964 2.28409 17.0853 2.47854L14.752 6.18687C14.4325 6.70076 13.9707 6.95771 13.3666 6.95771C12.7624 6.95771 12.2936 6.70771 11.9603 6.20771L10.8978 4.62437L8.91865 7.83271C8.62698 8.31882 8.1999 8.58271 7.6374 8.62437C7.0749 8.66604 6.6131 8.47159 6.25198 8.04104L5.21032 6.8327L2.66865 10.9369C2.54365 11.1452 2.35962 11.2737 2.11657 11.3223C1.87351 11.3709 1.65476 11.3188 1.46032 11.166ZM12.0853 14.9994C12.6687 14.9994 13.1617 14.798 13.5645 14.3952C13.9673 13.9924 14.1687 13.4994 14.1687 12.916C14.1687 12.3327 13.9673 11.8396 13.5645 11.4369C13.1617 11.0341 12.6687 10.8327 12.0853 10.8327C11.502 10.8327 11.0089 11.0341 10.6062 11.4369C10.2034 11.8396 10.002 12.3327 10.002 12.916C10.002 13.4994 10.2034 13.9924 10.6062 14.3952C11.0089 14.798 11.502 14.9994 12.0853 14.9994ZM12.0853 16.666C11.0437 16.666 10.1582 16.3015 9.42907 15.5723C8.6999 14.8431 8.33532 13.9577 8.33532 12.916C8.33532 11.8744 8.6999 10.989 9.42907 10.2598C10.1582 9.53062 11.0437 9.16604 12.0853 9.16604C13.127 9.16604 14.0124 9.53062 14.7416 10.2598C15.4707 10.989 15.8353 11.8744 15.8353 12.916C15.8353 13.2772 15.7867 13.6278 15.6895 13.9681C15.5923 14.3084 15.4464 14.6244 15.252 14.916L16.9187 16.5827C17.0714 16.7355 17.1478 16.9299 17.1478 17.166C17.1478 17.4022 17.0714 17.5966 16.9187 17.7494C16.7659 17.9022 16.5714 17.9785 16.3353 17.9785C16.0992 17.9785 15.9048 17.9022 15.752 17.7494L14.0853 16.0827C13.7937 16.2772 13.4777 16.423 13.1374 16.5202C12.7971 16.6174 12.4464 16.666 12.0853 16.666Z" fill="#70757C"/>
</g>
</svg>
