<svg width="20" height="20" viewBox="0 0 20 20" fill="none" xmlns="http://www.w3.org/2000/svg">
<mask id="mask0_924_5107" style="mask-type:alpha" maskUnits="userSpaceOnUse" x="0" y="0" width="20" height="20">
<rect width="20" height="20" fill="#D9D9D9"/>
</mask>
<g mask="url(#mask0_924_5107)">
<path d="M2.4974 17.0859C2.26128 17.0859 2.06337 17.0061 1.90365 16.8464C1.74392 16.6866 1.66406 16.4887 1.66406 16.2526V11.2526C1.66406 11.0165 1.74392 10.8186 1.90365 10.6589C2.06337 10.4991 2.26128 10.4193 2.4974 10.4193H7.4974C7.73351 10.4193 7.93142 10.4991 8.09115 10.6589C8.25087 10.8186 8.33073 11.0165 8.33073 11.2526V16.2526C8.33073 16.4887 8.25087 16.6866 8.09115 16.8464C7.93142 17.0061 7.73351 17.0859 7.4974 17.0859H2.4974ZM3.33073 15.4193H6.66406V12.0859H3.33073V15.4193ZM12.2682 8.33594H6.0599C5.74045 8.33594 5.50087 8.19358 5.34115 7.90885C5.18142 7.62413 5.1849 7.34288 5.35156 7.0651L8.45573 2.0026C8.6224 1.72483 8.85851 1.58594 9.16406 1.58594C9.46962 1.58594 9.70573 1.72483 9.8724 2.0026L12.9766 7.0651C13.1432 7.34288 13.1467 7.62413 12.987 7.90885C12.8273 8.19358 12.5877 8.33594 12.2682 8.33594ZM7.53906 6.66927H10.7891L9.16406 4.04427L7.53906 6.66927ZM17.3932 18.5443L15.7682 16.9193C15.4766 17.1137 15.1606 17.2595 14.8203 17.3568C14.48 17.454 14.1224 17.5026 13.7474 17.5026C12.7057 17.5026 11.8203 17.138 11.0911 16.4089C10.362 15.6797 9.9974 14.7943 9.9974 13.7526C9.9974 12.7109 10.362 11.8255 11.0911 11.0964C11.8203 10.3672 12.7057 10.0026 13.7474 10.0026C14.7891 10.0026 15.6745 10.3672 16.4036 11.0964C17.1328 11.8255 17.4974 12.7109 17.4974 13.7526C17.4974 14.1137 17.4488 14.4644 17.3516 14.8047C17.2543 15.145 17.1155 15.4609 16.9349 15.7526L18.5599 17.3776C18.7127 17.5304 18.7891 17.7248 18.7891 17.9609C18.7891 18.197 18.7127 18.3915 18.5599 18.5443C18.4071 18.697 18.2127 18.7734 17.9766 18.7734C17.7405 18.7734 17.546 18.697 17.3932 18.5443ZM13.7474 15.8359C14.3307 15.8359 14.8238 15.6345 15.2266 15.2318C15.6293 14.829 15.8307 14.3359 15.8307 13.7526C15.8307 13.1693 15.6293 12.6762 15.2266 12.2734C14.8238 11.8707 14.3307 11.6693 13.7474 11.6693C13.1641 11.6693 12.671 11.8707 12.2682 12.2734C11.8655 12.6762 11.6641 13.1693 11.6641 13.7526C11.6641 14.3359 11.8655 14.829 12.2682 15.2318C12.671 15.6345 13.1641 15.8359 13.7474 15.8359Z" fill="#70757C"/>
</g>
</svg>
