<svg width="20" height="20" viewBox="0 0 20 20" fill="none" xmlns="http://www.w3.org/2000/svg">
<mask id="mask0_924_5083" style="mask-type:alpha" maskUnits="userSpaceOnUse" x="0" y="0" width="20" height="20">
<rect width="20" height="20" fill="#D9D9D9"/>
</mask>
<g mask="url(#mask0_924_5083)">
<path d="M4.16667 3.33073V8.35156V8.33073V16.6641V3.33073ZM6.66667 11.6641H8.33333C8.56944 11.6641 8.76736 11.5842 8.92708 11.4245C9.08681 11.2648 9.16667 11.0668 9.16667 10.8307C9.16667 10.5946 9.08681 10.3967 8.92708 10.237C8.76736 10.0773 8.56944 9.9974 8.33333 9.9974H6.66667C6.43056 9.9974 6.23264 10.0773 6.07292 10.237C5.91319 10.3967 5.83333 10.5946 5.83333 10.8307C5.83333 11.0668 5.91319 11.2648 6.07292 11.4245C6.23264 11.5842 6.43056 11.6641 6.66667 11.6641ZM6.66667 14.9974H7.5C7.73611 14.9974 7.93403 14.9175 8.09375 14.7578C8.25347 14.5981 8.33333 14.4002 8.33333 14.1641C8.33333 13.928 8.25347 13.73 8.09375 13.5703C7.93403 13.4106 7.73611 13.3307 7.5 13.3307H6.66667C6.43056 13.3307 6.23264 13.4106 6.07292 13.5703C5.91319 13.73 5.83333 13.928 5.83333 14.1641C5.83333 14.4002 5.91319 14.5981 6.07292 14.7578C6.23264 14.9175 6.43056 14.9974 6.66667 14.9974ZM4.16667 18.3307C3.70833 18.3307 3.31597 18.1675 2.98958 17.8411C2.66319 17.5148 2.5 17.1224 2.5 16.6641V3.33073C2.5 2.8724 2.66319 2.48003 2.98958 2.15365C3.31597 1.82726 3.70833 1.66406 4.16667 1.66406H10.1458C10.3681 1.66406 10.5799 1.70573 10.7812 1.78906C10.9826 1.8724 11.1597 1.99045 11.3125 2.14323L15.3542 6.1849C15.5069 6.33767 15.625 6.51476 15.7083 6.71615C15.7917 6.91753 15.8333 7.12934 15.8333 7.35156V7.9349C15.8333 8.17101 15.7535 8.36545 15.5938 8.51823C15.434 8.67101 15.2361 8.7474 15 8.7474C14.7639 8.7474 14.566 8.66753 14.4062 8.50781C14.2465 8.34809 14.1667 8.15017 14.1667 7.91406V7.4974H10.8333C10.5972 7.4974 10.3993 7.41753 10.2396 7.25781C10.0799 7.09809 10 6.90017 10 6.66406V3.33073H4.16667V16.6641H8.75C8.98611 16.6641 9.18403 16.7439 9.34375 16.9036C9.50347 17.0634 9.58333 17.2613 9.58333 17.4974C9.58333 17.7335 9.50347 17.9314 9.34375 18.0911C9.18403 18.2509 8.98611 18.3307 8.75 18.3307H4.16667ZM13.75 15.8307C14.3333 15.8307 14.8264 15.6293 15.2292 15.2266C15.6319 14.8238 15.8333 14.3307 15.8333 13.7474C15.8333 13.1641 15.6319 12.671 15.2292 12.2682C14.8264 11.8655 14.3333 11.6641 13.75 11.6641C13.1667 11.6641 12.6736 11.8655 12.2708 12.2682C11.8681 12.671 11.6667 13.1641 11.6667 13.7474C11.6667 14.3307 11.8681 14.8238 12.2708 15.2266C12.6736 15.6293 13.1667 15.8307 13.75 15.8307ZM18.5833 18.5807C18.4306 18.7335 18.2361 18.8099 18 18.8099C17.7639 18.8099 17.5694 18.7335 17.4167 18.5807L15.75 16.9141C15.4583 17.1085 15.1424 17.2543 14.8021 17.3516C14.4618 17.4488 14.1111 17.4974 13.75 17.4974C12.7083 17.4974 11.8229 17.1328 11.0938 16.4036C10.3646 15.6745 10 14.7891 10 13.7474C10 12.7057 10.3646 11.8203 11.0938 11.0911C11.8229 10.362 12.7083 9.9974 13.75 9.9974C14.7917 9.9974 15.6771 10.362 16.4062 11.0911C17.1354 11.8203 17.5 12.7057 17.5 13.7474C17.5 14.1085 17.4514 14.4592 17.3542 14.7995C17.2569 15.1398 17.1111 15.4557 16.9167 15.7474L18.5833 17.4141C18.7361 17.5668 18.8125 17.7613 18.8125 17.9974C18.8125 18.2335 18.7361 18.428 18.5833 18.5807Z" fill="#1C1B1F"/>
</g>
</svg>
