<svg width="20" height="20" viewBox="0 0 20 20" fill="none" xmlns="http://www.w3.org/2000/svg">
<mask id="mask0_924_5089" style="mask-type:alpha" maskUnits="userSpaceOnUse" x="0" y="0" width="20" height="20">
<rect width="20" height="20" fill="#D9D9D9"/>
</mask>
<g mask="url(#mask0_924_5089)">
<path d="M3.33073 17.5C2.8724 17.5 2.48003 17.3368 2.15365 17.0104C1.82726 16.684 1.66406 16.2917 1.66406 15.8333V6.66667C1.66406 6.43056 1.74392 6.23264 1.90365 6.07292C2.06337 5.91319 2.26128 5.83333 2.4974 5.83333C2.73351 5.83333 2.93142 5.91319 3.09115 6.07292C3.25087 6.23264 3.33073 6.43056 3.33073 6.66667V15.8333H14.9974C15.2335 15.8333 15.4314 15.9132 15.5911 16.0729C15.7509 16.2326 15.8307 16.4306 15.8307 16.6667C15.8307 16.9028 15.7509 17.1007 15.5911 17.2604C15.4314 17.4201 15.2335 17.5 14.9974 17.5H3.33073ZM6.66406 14.1667C6.20573 14.1667 5.81337 14.0035 5.48698 13.6771C5.16059 13.3507 4.9974 12.9583 4.9974 12.5V3.33333C4.9974 3.09722 5.07726 2.89931 5.23698 2.73958C5.3967 2.57986 5.59462 2.5 5.83073 2.5H18.3307C18.5668 2.5 18.7648 2.57986 18.9245 2.73958C19.0842 2.89931 19.1641 3.09722 19.1641 3.33333V12.5C19.1641 12.9583 19.0009 13.3507 18.6745 13.6771C18.3481 14.0035 17.9557 14.1667 17.4974 14.1667H6.66406ZM6.66406 12.5H17.4974V4.16667H6.66406V12.5ZM9.16406 10H10.8307C11.0668 10 11.2648 9.92014 11.4245 9.76042C11.5842 9.60069 11.6641 9.40278 11.6641 9.16667V6.66667C11.6641 6.43056 11.5842 6.23264 11.4245 6.07292C11.2648 5.91319 11.0668 5.83333 10.8307 5.83333H9.16406C8.92795 5.83333 8.73003 5.91319 8.57031 6.07292C8.41059 6.23264 8.33073 6.43056 8.33073 6.66667V9.16667C8.33073 9.40278 8.41059 9.60069 8.57031 9.76042C8.73003 9.92014 8.92795 10 9.16406 10ZM13.3307 10H14.9974C15.2335 10 15.4314 9.92014 15.5911 9.76042C15.7509 9.60069 15.8307 9.40278 15.8307 9.16667C15.8307 8.93056 15.7509 8.73264 15.5911 8.57292C15.4314 8.41319 15.2335 8.33333 14.9974 8.33333H13.3307C13.0946 8.33333 12.8967 8.41319 12.737 8.57292C12.5773 8.73264 12.4974 8.93056 12.4974 9.16667C12.4974 9.40278 12.5773 9.60069 12.737 9.76042C12.8967 9.92014 13.0946 10 13.3307 10ZM13.3307 7.5H14.9974C15.2335 7.5 15.4314 7.42014 15.5911 7.26042C15.7509 7.10069 15.8307 6.90278 15.8307 6.66667C15.8307 6.43056 15.7509 6.23264 15.5911 6.07292C15.4314 5.91319 15.2335 5.83333 14.9974 5.83333H13.3307C13.0946 5.83333 12.8967 5.91319 12.737 6.07292C12.5773 6.23264 12.4974 6.43056 12.4974 6.66667C12.4974 6.90278 12.5773 7.10069 12.737 7.26042C12.8967 7.42014 13.0946 7.5 13.3307 7.5Z" fill="#70757C"/>
</g>
</svg>
