<svg width="20" height="20" viewBox="0 0 20 20" fill="none" xmlns="http://www.w3.org/2000/svg">
<mask id="mask0_924_5095" style="mask-type:alpha" maskUnits="userSpaceOnUse" x="0" y="0" width="20" height="20">
<rect width="20" height="20" fill="#D9D9D9"/>
</mask>
<g mask="url(#mask0_924_5095)">
<path d="M4.16406 13.3307V9.16406C4.16406 8.92795 4.24392 8.73004 4.40365 8.57031C4.56337 8.41059 4.76128 8.33073 4.9974 8.33073C5.23351 8.33073 5.43142 8.41059 5.59115 8.57031C5.75087 8.73004 5.83073 8.92795 5.83073 9.16406V13.3307C5.83073 13.5668 5.75087 13.7648 5.59115 13.9245C5.43142 14.0842 5.23351 14.1641 4.9974 14.1641C4.76128 14.1641 4.56337 14.0842 4.40365 13.9245C4.24392 13.7648 4.16406 13.5668 4.16406 13.3307ZM9.16406 13.3307V9.16406C9.16406 8.92795 9.24392 8.73004 9.40365 8.57031C9.56337 8.41059 9.76128 8.33073 9.9974 8.33073C10.2335 8.33073 10.4314 8.41059 10.5911 8.57031C10.7509 8.73004 10.8307 8.92795 10.8307 9.16406V13.3307C10.8307 13.5668 10.7509 13.7648 10.5911 13.9245C10.4314 14.0842 10.2335 14.1641 9.9974 14.1641C9.76128 14.1641 9.56337 14.0842 9.40365 13.9245C9.24392 13.7648 9.16406 13.5668 9.16406 13.3307ZM2.4974 17.4974C2.26128 17.4974 2.06337 17.4175 1.90365 17.2578C1.74392 17.0981 1.66406 16.9002 1.66406 16.6641C1.66406 16.428 1.74392 16.23 1.90365 16.0703C2.06337 15.9106 2.26128 15.8307 2.4974 15.8307H17.4974C17.7335 15.8307 17.9314 15.9106 18.0911 16.0703C18.2509 16.23 18.3307 16.428 18.3307 16.6641C18.3307 16.9002 18.2509 17.0981 18.0911 17.2578C17.9314 17.4175 17.7335 17.4974 17.4974 17.4974H2.4974ZM14.1641 13.3307V9.16406C14.1641 8.92795 14.2439 8.73004 14.4036 8.57031C14.5634 8.41059 14.7613 8.33073 14.9974 8.33073C15.2335 8.33073 15.4314 8.41059 15.5911 8.57031C15.7509 8.73004 15.8307 8.92795 15.8307 9.16406V13.3307C15.8307 13.5668 15.7509 13.7648 15.5911 13.9245C15.4314 14.0842 15.2335 14.1641 14.9974 14.1641C14.7613 14.1641 14.5634 14.0842 14.4036 13.9245C14.2439 13.7648 14.1641 13.5668 14.1641 13.3307ZM17.4974 6.66406H2.41406C2.20573 6.66406 2.02865 6.59115 1.88281 6.44531C1.73698 6.29948 1.66406 6.1224 1.66406 5.91406V5.45573C1.66406 5.30295 1.70226 5.17101 1.77865 5.0599C1.85503 4.94879 1.95573 4.85851 2.08073 4.78906L9.2474 1.20573C9.48351 1.09462 9.73351 1.03906 9.9974 1.03906C10.2613 1.03906 10.5113 1.09462 10.7474 1.20573L17.8724 4.76823C18.0252 4.83767 18.1398 4.94184 18.2161 5.08073C18.2925 5.21962 18.3307 5.36545 18.3307 5.51823V5.83073C18.3307 6.06684 18.2509 6.26476 18.0911 6.42448C17.9314 6.5842 17.7335 6.66406 17.4974 6.66406ZM5.3724 4.9974H14.6224L9.9974 2.70573L5.3724 4.9974Z" fill="#70757C"/>
</g>
</svg>
