<svg width="240" height="83" viewBox="0 0 240 83" fill="none" xmlns="http://www.w3.org/2000/svg">
<path d="M5.11006 25.7439H0.5L0.5 61.0767L169.527 61.0767L171.757 71.9448H175.712L178.933 73.4106L180.517 61.6782L180.913 61.0767H194.927L195.078 61.6786L202.164 71.9459L215.691 71.945L220.2 61.6782L226.642 71.9448H229.863L232.61 61.6782L234.59 61.0767H239.525V59.5767L234.59 61.0767L194.927 61.0767L191.213 46.2759L185.588 53.9782L180.913 61.0767H169.527L164.381 36.0116L162.076 46.2782L158.388 36.0116L155.622 53.9782L148.246 23.1783L144.097 36.0116H136.26L127.962 10.345L122.891 23.1783L116.212 15.4773L108.075 36.0106L102.843 0.0773065L99.0568 36.0106L73.7999 51.4106L70.5729 41.1439H67.3459L59.9698 25.7439H52.5937L49.8276 41.1439L38.7635 10.3439L34.1534 51.4106L31.8484 36.0106H26.7773L22.1673 0.0773065L17.5572 30.8773L15.2522 15.4773H9.25911L5.11006 25.7439Z" fill="url(#paint0_linear_826_5020)" fill-opacity="0.16"/>
<path d="M0.5 25.5858H5.12236L9.28248 15.3814H15.2915L17.6027 30.688L22.2251 0.0747064L26.8474 35.7902H31.932L34.2432 51.0968L38.8656 10.2791L49.9592 40.8924L52.7327 25.5858H60.1284L67.5242 40.8924H70.7599L73.9955 51.0968L99.3198 35.7902L103.116 0.0747064L108.362 35.7902L116.521 15.3814L123.217 23.0357L128.302 10.2801L136.622 35.7912H144.48L148.64 23.0357L156.036 53.6489L158.81 35.7912L162.507 45.9956L164.819 35.7912L169.775 61.3023H180.997L186.081 53.6489L191.722 45.9933L195.597 61.3026L202.702 71.5078L216.265 71.5069L220.787 61.3023L227.245 71.5067H230.475L233.23 61.3023L238.627 82.0747" stroke="#00B84A" stroke-linecap="round"/>
<path opacity="0.12" d="M238.773 82.0747L233.273 61.5747L230.273 71.5747H227.273L220.773 61.5747L216.273 71.5747H202.773L195.773 61.5747H180.773L179.273 73.0747L176.273 71.5747H172.273L169.773 61.5747H180.773H195.773H220.773H233.273H238.773V82.0747Z" fill="#FF5454"/>
<path d="M238.773 82.0747L233.273 61.5747L230.273 71.5747H227.273L220.773 61.5747L216.273 71.5747H202.773L195.773 61.5747H180.773L179.273 73.0747L176.273 71.5747H172.273L169.773 61.5747" stroke="#FF5454"/>
<line x1="0.273437" y1="61.5747" x2="239.299" y2="61.5747" stroke="#70757C" stroke-dasharray="2 2"/>
<defs>
<linearGradient id="paint0_linear_826_5020" x1="120.013" y1="110.078" x2="120.013" y2="0.0776442" gradientUnits="userSpaceOnUse">
<stop stop-color="white" stop-opacity="0"/>
<stop offset="0.809892" stop-color="#00B84A"/>
</linearGradient>
</defs>
</svg>
