<svg width="205" height="34" viewBox="0 0 205 34" fill="none" xmlns="http://www.w3.org/2000/svg">
<mask id="mask0_826_11644" style="mask-type:alpha" maskUnits="userSpaceOnUse" x="0" y="0" width="205" height="20">
<path d="M0 0H205V19.684H0V0Z" fill="#D9D9D9"/>
</mask>
<g mask="url(#mask0_826_11644)">
<path d="M3.95382 10.3491H0L0 33.105L205 33.105V29.3024L199.069 22.3328L196.713 25.7566H193.951L188.426 22.3328L184.559 25.7566L172.957 25.7569L166.88 22.3329L163.565 17.1963L158.74 19.7649L154.391 22.3328L153.033 26.2454L150.271 25.7566H146.879L140.553 13.7732L138.576 17.197L135.413 13.7732L133.041 19.7649L126.714 9.49344L123.156 13.7732H116.435L109.318 5.21367L104.968 9.49344L99.2408 6.92525L92.2617 13.7729L87.7747 1.78951L84.5272 13.7729L62.8657 18.9086L60.098 15.4848H57.3303L51.0042 10.3491H44.6781L42.3058 15.4848L32.8167 5.21333L28.8629 18.9086L26.8859 13.7729H22.5367L18.5829 1.78951L14.6291 12.061L12.6522 6.92525H7.51225L3.95382 10.3491Z" fill="url(#paint0_linear_826_11644)" fill-opacity="0.16"/>
<path d="M0 10.4185H3.95991L7.52383 6.96681H12.6717L14.6517 12.1443L18.6116 1.78932L22.5715 13.8701H26.9274L28.9074 19.0476L32.8673 5.24097L42.3711 15.5959L44.747 10.4185H51.0829L57.4187 15.5959H60.1907L62.9626 19.0476L84.6576 13.8701L87.9101 1.78932L92.404 13.8701L99.3938 6.96681L105.13 9.55588L109.486 5.24132L116.614 13.8704H123.346L126.91 9.55588L133.246 19.9108L135.622 13.8704L138.79 17.3221L140.77 13.8704L147.105 25.9512H150.502L153.269 26.444L154.629 22.4996L158.985 19.9108L163.817 17.3213L167.137 22.4997L173.224 25.9516L184.843 25.9513L188.717 22.4996L194.25 25.9512H197.016L199.376 22.4996L204 29.5259" stroke="#00B84A" stroke-linecap="round"/>
</g>
<mask id="mask1_826_11644" style="mask-type:alpha" maskUnits="userSpaceOnUse" x="0" y="20" width="205" height="14">
<path d="M0 20.5791H205V34H0V20.5791Z" fill="#D9D9D9"/>
</mask>
<g mask="url(#mask1_826_11644)">
<path d="M0 10.4185H3.95991L7.52383 6.96681H12.6717L14.6517 12.1443L18.6116 1.78932L22.5715 13.8701H26.9274L28.9074 19.0476L32.8673 5.24097L42.3711 15.5959L44.747 10.4185H51.0829L57.4187 15.5959H60.1907L62.9626 19.0476L84.6576 13.8701L87.9101 1.78932L92.404 13.8701L99.3938 6.96681L105.13 9.55588L109.486 5.24132L116.614 13.8705H123.346L126.91 9.55588L133.246 19.9108L135.622 13.8705L138.79 17.3221L140.77 13.8705L147.105 25.9512H150.502L153.269 26.444L154.629 22.4996L158.985 19.9108L163.817 17.3213L167.137 22.4997L173.224 25.9516L184.843 25.9513L188.717 22.4996L194.25 25.9512H197.016L199.376 22.4996L204 29.5259" stroke="#FF5454" stroke-linecap="round"/>
<path d="M99.3938 6.96681L95.5768 10.7366H94.5V11.8001V19.9108L133.246 19.9108H143.937L147.105 25.9512H150.502L153.269 26.444L154.629 22.4996L158.985 19.9108L163.817 17.3213L167.137 22.4997L173.224 25.9516L184.843 25.9513L188.717 22.4996L194.25 25.9512H197.016L199.376 22.4996L204 29.5259V10.7366L127.632 10.7366L126.91 9.55588L125.935 10.7366H114.025L109.486 5.24132L105.13 9.55588L99.3938 6.96681Z" fill="url(#paint1_linear_826_11644)" fill-opacity="0.16"/>
</g>
<defs>
<linearGradient id="paint0_linear_826_11644" x1="102.5" y1="38.4733" x2="102.5" y2="1.78951" gradientUnits="userSpaceOnUse">
<stop stop-color="white" stop-opacity="0"/>
<stop offset="0.809892" stop-color="#00B84A"/>
</linearGradient>
<linearGradient id="paint1_linear_826_11644" x1="102" y1="29.5259" x2="102" y2="12.5261" gradientUnits="userSpaceOnUse">
<stop stop-color="#FF5454"/>
<stop offset="1" stop-color="white"/>
</linearGradient>
</defs>
</svg>
