<svg width="64" height="36" viewBox="0 0 64 36" fill="none" xmlns="http://www.w3.org/2000/svg">
<g opacity="0.5" clip-path="url(#clip0_454_16105)">
<mask id="mask0_454_16105" style="mask-type:luminance" maskUnits="userSpaceOnUse" x="0" y="0" width="64" height="36">
<path d="M64 0H0V36H64V0Z" fill="white"/>
</mask>
<g mask="url(#mask0_454_16105)">
<path d="M15.7404 29.7725H13.5183C12.1242 29.7725 11.3874 30.4221 11.3874 31.6513V35.6462H13.0681V31.9771C13.0681 31.791 13.0681 31.3552 13.9346 31.3552H15.339C16.0944 31.3552 16.191 31.6872 16.191 31.9771V35.6461H17.8563V31.6515C17.8563 30.4224 17.1249 29.7727 15.7404 29.7727" fill="#001A3A"/>
<path d="M40.0195 29.773C39.6995 29.5601 39.2262 29.4561 38.5726 29.4561H36.3855C35.742 29.4561 35.245 29.5617 34.9075 29.7703C34.6803 29.8987 34.4924 30.0856 34.3637 30.3113C34.235 30.537 34.1703 30.793 34.1766 31.0522V33.7702C34.17 33.9959 34.2199 34.2198 34.3219 34.4217C34.4239 34.6237 34.5749 34.7974 34.7612 34.9273C35.1284 35.194 35.6751 35.3299 36.3856 35.3299H38.5722C39.2061 35.3299 39.6734 35.227 39.9979 35.0174C40.2216 34.8949 40.407 34.7137 40.5338 34.4936C40.6606 34.2735 40.7239 34.0231 40.7167 33.7698V31.0521C40.7167 30.4874 40.4822 30.0572 40.019 29.773M39.0372 33.5165C39.0405 33.5866 39.0231 33.6561 38.9872 33.7165C38.9513 33.7769 38.8983 33.8255 38.8349 33.8565C38.6738 33.945 38.4903 33.9851 38.3067 33.9721H36.6301C36.4312 33.9845 36.2328 33.9411 36.0576 33.8468C35.9936 33.8154 35.9404 33.7659 35.9046 33.7046C35.8688 33.6433 35.8521 33.5729 35.8565 33.5022V31.3055C35.8504 31.2291 35.8675 31.1527 35.9056 31.086C35.9437 31.0194 36.0009 30.9655 36.0701 30.9314C36.2025 30.8437 36.4225 30.7992 36.7232 30.7992H38.2214C38.5053 30.7992 38.7138 30.8442 38.8467 30.9366C38.9107 30.9737 38.9627 31.0281 38.9965 31.0934C39.0303 31.1588 39.0446 31.2324 39.0376 31.3056L39.0372 33.5165Z" fill="#001A3A"/>
<path d="M47.8697 33.4585V31.2915C47.8697 31.0974 47.9125 30.9702 47.9982 30.9134C48.0617 30.8706 48.2319 30.7991 48.6572 30.7991H50.6069L51.5818 29.4417H48.1341C46.5276 29.4417 46.1901 30.3095 46.1901 31.0377V33.6757C46.1901 34.7729 46.953 35.3297 48.4567 35.3297H50.635L51.6099 33.972H48.7217C47.8697 33.972 47.8697 33.6117 47.8697 33.4577" fill="#001A3A"/>
<path d="M60.271 32.3407L63.451 29.4703H61.3123L58.7393 31.7415V27.6367H57.0598V35.3297H58.7393V32.9106L61.4337 35.3297H63.6207L60.271 32.3407Z" fill="#001A3A"/>
<path d="M4.22845 29.7725H0.00641091L0.981318 31.1306H4.14345C4.7413 31.1306 4.78999 31.3414 4.80526 31.4123C4.8068 31.4213 4.80773 31.4304 4.80805 31.4395V31.9523H2.01327C1.3942 31.9523 0.893921 32.0849 0.527334 32.3462C0.138082 32.6229 -0.0594729 33.0229 -0.0594729 33.5332V34.1304C-0.0651886 34.366 -0.00724926 34.5989 0.10834 34.8049C0.22393 35.0108 0.392964 35.1824 0.597924 35.3018C0.974211 35.5399 1.47458 35.6604 2.08501 35.6604H4.49419C5.08858 35.6604 5.56984 35.5183 5.92423 35.2387C6.10198 35.1037 6.24506 34.9289 6.34186 34.7287C6.43865 34.5284 6.48641 34.3084 6.48127 34.0864V31.3685C6.48127 30.3094 5.72351 29.7725 4.22873 29.7725M4.80171 33.9058C4.80171 34.0206 4.80171 34.2886 4.12895 34.2886H2.32147C2.13319 34.295 1.94664 34.2511 1.78133 34.1615C1.73072 34.1369 1.68848 34.0982 1.65985 34.05C1.63122 34.0019 1.61746 33.9465 1.62027 33.8906V33.7215C1.62027 33.5691 1.62027 33.2521 2.30725 33.2521H4.71624C4.74475 33.2515 4.77327 33.2534 4.80142 33.258L4.80171 33.9058Z" fill="#001A3A"/>
<path d="M26.7088 27.9668H25.0295V29.8661H23.8838V31.2017H25.0295V35.6593H26.7088V31.2018H27.4159L28.3936 29.8662H26.7088V27.9668Z" fill="#001A3A"/>
<path d="M34.8942 16.0417V21.7455H40.2792V15.6572L37.6213 17.4441L34.8942 16.0417Z" fill="#001A3A"/>
<path d="M39.8191 8.82822H35.3541C35.1003 8.82822 34.8942 9.01527 34.8942 9.34612V14.8743L37.5522 16.2413L40.2792 14.4083V9.34603C40.2792 9.01517 40.0732 8.82822 39.8191 8.82822Z" fill="#001A3A"/>
<path d="M27.0141 9.52246H22.4768C22.2426 9.52246 22.0529 9.68837 22.0529 9.99303V16.1168L27.4379 14.2709V9.99303C27.4379 9.68827 27.2482 9.52246 27.0141 9.52246Z" fill="#001A3A"/>
<path d="M22.0529 21.7453H27.4379V15.3682L22.0529 17.2143V21.7453Z" fill="#001A3A"/>
<path d="M33.3967 5.84302H28.9317C28.6777 5.84302 28.4718 6.03007 28.4718 6.36064V13.9157L31.2045 12.9789L33.8568 14.3427V6.36064C33.8568 6.03007 33.6508 5.84302 33.3968 5.84302" fill="#001A3A"/>
<path d="M28.4719 15.012V21.744H33.8569V15.508L31.1248 14.1025L28.4719 15.012Z" fill="#001A3A"/>
<path d="M15.6338 21.7456H21.0189V17.5693L15.6338 19.4154V21.7456Z" fill="#001A3A"/>
<path d="M20.5588 14.5068H16.094C15.8399 14.5068 15.634 14.6939 15.634 15.0247V18.3158L21.0191 16.4699V15.0247C21.0191 14.6939 20.813 14.5068 20.5588 14.5068Z" fill="#001A3A"/>
<path d="M12.1187 20.6202L11.7887 20.7336L12.1187 21.7186L15.6338 20.5134V19.415L15.3585 19.5094L12.1187 20.6202Z" fill="#001A3A"/>
<path d="M46.6981 0.767699C46.6981 0.449128 46.4999 0.272461 46.2549 0.272461H41.7562C41.5114 0.272461 41.3134 0.449413 41.3134 0.767699V13.7125L46.6981 10.0925V0.767699Z" fill="#001A3A"/>
<path d="M50.4157 8.39836L49.5428 8.31836L49.6996 8.55684L49.9482 8.93474L49.9242 8.89845L49.985 8.99065L50.0022 9.01703L50.0486 9.08788L47.0226 11.1226L46.6982 11.3407L41.3132 14.9607V21.7447H46.6982V12.5892L50.6179 9.95417L50.6444 9.99484L50.6743 10.04L51.0957 10.6811L51.7733 8.52255L50.4157 8.39836Z" fill="#001A3A"/>
</g>
</g>
<defs>
<clipPath id="clip0_454_16105">
<rect width="64" height="36" fill="white"/>
</clipPath>
</defs>
</svg>
