<svg width="20" height="20" viewBox="0 0 20 20" fill="none" xmlns="http://www.w3.org/2000/svg">
<mask id="mask0_1829_6177" style="mask-type:alpha" maskUnits="userSpaceOnUse" x="0" y="0" width="20" height="20">
<rect width="20" height="20" fill="black"/>
</mask>
<g mask="url(#mask0_1829_6177)">
<path d="M2.4974 17.5C2.26128 17.5 2.06337 17.4201 1.90365 17.2604C1.74392 17.1007 1.66406 16.9028 1.66406 16.6667C1.66406 16.4306 1.74392 16.2326 1.90365 16.0729C2.06337 15.9132 2.26128 15.8333 2.4974 15.8333H17.4974C17.7335 15.8333 17.9314 15.9132 18.0911 16.0729C18.2509 16.2326 18.3307 16.4306 18.3307 16.6667C18.3307 16.9028 18.2509 17.1007 18.0911 17.2604C17.9314 17.4201 17.7335 17.5 17.4974 17.5H2.4974ZM3.7474 15C3.40017 15 3.10503 14.8785 2.86198 14.6354C2.61892 14.3924 2.4974 14.0972 2.4974 13.75V10.4167C2.4974 10.0694 2.61892 9.77431 2.86198 9.53125C3.10503 9.28819 3.40017 9.16667 3.7474 9.16667C4.09462 9.16667 4.38976 9.28819 4.63281 9.53125C4.87587 9.77431 4.9974 10.0694 4.9974 10.4167V13.75C4.9974 14.0972 4.87587 14.3924 4.63281 14.6354C4.38976 14.8785 4.09462 15 3.7474 15ZM7.91406 15C7.56684 15 7.2717 14.8785 7.02865 14.6354C6.78559 14.3924 6.66406 14.0972 6.66406 13.75V6.25C6.66406 5.90278 6.78559 5.60764 7.02865 5.36458C7.2717 5.12153 7.56684 5 7.91406 5C8.26128 5 8.55642 5.12153 8.79948 5.36458C9.04253 5.60764 9.16406 5.90278 9.16406 6.25V13.75C9.16406 14.0972 9.04253 14.3924 8.79948 14.6354C8.55642 14.8785 8.26128 15 7.91406 15ZM12.0807 15C11.7335 15 11.4384 14.8785 11.1953 14.6354C10.9523 14.3924 10.8307 14.0972 10.8307 13.75V8.75C10.8307 8.40278 10.9523 8.10764 11.1953 7.86458C11.4384 7.62153 11.7335 7.5 12.0807 7.5C12.428 7.5 12.7231 7.62153 12.9661 7.86458C13.2092 8.10764 13.3307 8.40278 13.3307 8.75V13.75C13.3307 14.0972 13.2092 14.3924 12.9661 14.6354C12.7231 14.8785 12.428 15 12.0807 15ZM16.2474 15C15.9002 15 15.605 14.8785 15.362 14.6354C15.1189 14.3924 14.9974 14.0972 14.9974 13.75V3.75C14.9974 3.40278 15.1189 3.10764 15.362 2.86458C15.605 2.62153 15.9002 2.5 16.2474 2.5C16.5946 2.5 16.8898 2.62153 17.1328 2.86458C17.3759 3.10764 17.4974 3.40278 17.4974 3.75V13.75C17.4974 14.0972 17.3759 14.3924 17.1328 14.6354C16.8898 14.8785 16.5946 15 16.2474 15Z" fill="black"/>
</g>
</svg>
