<svg width="18" height="11" viewBox="0 0 18 11" fill="none" xmlns="http://www.w3.org/2000/svg">
<path d="M0.264 10.3583C0.0806667 10.175 -0.00718056 9.95729 0.000458333 9.70521C0.00809722 9.45313 0.0959444 9.24306 0.264 9.075L5.09942 4.17083C5.45081 3.81944 5.88622 3.64375 6.40567 3.64375C6.92511 3.64375 7.36053 3.81944 7.71192 4.17083L10.0723 6.55417L14.839 1.83333H13.3723C13.1126 1.83333 12.8949 1.74549 12.7192 1.56979C12.5435 1.3941 12.4557 1.17639 12.4557 0.916667C12.4557 0.656944 12.5435 0.439236 12.7192 0.263542C12.8949 0.0878472 13.1126 0 13.3723 0H17.039C17.2987 0 17.5164 0.0878472 17.6921 0.263542C17.8678 0.439236 17.9557 0.656944 17.9557 0.916667V4.58333C17.9557 4.84306 17.8678 5.06076 17.6921 5.23646C17.5164 5.41215 17.2987 5.5 17.039 5.5C16.7793 5.5 16.5616 5.41215 16.3859 5.23646C16.2102 5.06076 16.1223 4.84306 16.1223 4.58333V3.11667L11.3786 7.86042C11.0272 8.21181 10.5918 8.3875 10.0723 8.3875C9.55289 8.3875 9.11747 8.21181 8.76608 7.86042L6.40567 5.5L1.54733 10.3583C1.37928 10.5264 1.16539 10.6104 0.905667 10.6104C0.645944 10.6104 0.432056 10.5264 0.264 10.3583Z" fill="#00B84A"/>
</svg>
